<svg id="icon-bus" viewBox="0 0 22 20" width="100%" height="100%">
            <title>Bus</title>
            <path style="fill:#C31924;" d="M0,9v2l5,9h12l5-9V9l-5-9H5L0,9z"></path>
            <g>
                <path style="fill:#ffffff;" d="M4,6h2c0.5,0,2,0,2,2c0,1-1,1.5-1,1.5S8,10,8,11c0,2-1.484,1.989-2,2H4V6z M5,9h1c0,0,1,0,1-1S6,7,6,7H5V9z                      M5,12h1c0,0,1,0,1-1s-1-1-1-1H5V12z"></path>
            </g>
            <path style="fill:#ffffff;" d="M13,11c0,2-2,2-2,2s-2,0-2-2V6h1v5c0,1,1,1,1,1s1,0,1-1V6h1V11z"></path>
            <path style="fill:#ffffff;" d="M17.943,8.031h-1.15V7.809c0-0.75-0.945-1.172-1.436-0.555c-0.456,0.572-0.08,1.331,0.501,1.531l0.879,0.299                 c1.323,0.435,1.697,2.423,0.686,3.41C16.413,13.478,14,12.991,14,11.353v-0.367h1.149v0.308c0,0.808,1.18,0.942,1.55,0.357                 c0.388-0.614,0.034-1.5-0.569-1.719l-0.822-0.29c-1.29-0.452-1.753-2.204-0.673-3.178c0.971-0.876,3.309-0.515,3.309,1.082                 L17.943,8.031L17.943,8.031z"></path>
        </svg>