<svg id="icon-fussweg" viewBox="0 0 19 31" width="100%" height="100%">
            <title>Fussweg</title>
			<g>
				<circle class="st1" cx="11.1" cy="2.6" r="2.6"></circle>
			</g>
			<g>
				<path class="st1" d="M18.1,13.7L14.4,12l-2.7-5.5c-0.3-0.6-0.6-1-1.6-1.1c-0.2,0-0.9-0.1-1.2,0C8.6,5.6,2.3,9,2.2,9.1      C1.9,9.3,1.7,9.5,1.6,9.8l-0.9,4.6c0,0.6,0.3,1.2,0.9,1.3c0.6,0.1,1.1-0.3,1.2-0.8l0.8-4.3l3-1.6L4.3,21.6l-4,6.1      c-0.5,0.8-0.4,1.7,0.2,2.1s1.5,0.1,2-0.7l3.9-6c0.4-0.5,1.1-5.5,1.1-5.5c0.1,0,0.9,0.2,1.1,0.4l4.1,4.9l1.3,6      c0.2,0.8,0.9,1.3,1.6,1.1c0.7-0.2,1.1-0.9,1-1.7l-1.3-6.1c-0.1-0.7-4.7-6-4.7-6l1.2-5.3c0,0,1.1,2.2,1.1,2.3      c0.1,0.3,0.3,0.5,0.5,0.7l3.9,1.7c0.5,0.2,1.1,0,1.3-0.6C18.8,14.5,18.6,13.9,18.1,13.7z"></path>
			</g>
        </svg>