<svg id="icon-sbahn" viewBox="0 0 20 20" width="100%" height="100%">
            <title>S-Bahn</title>
              <g>
                <path style="fill:#fff;" d="M0.51,13.139c1.009,3.052,3.442,5.455,6.517,6.411C3.952,18.594,1.519,16.19,0.51,13.139z"></path>
                <path style="fill:#fff;" d="M15.484,15.117c1.366-2.055,0.441-4.941-1.299-5.914C11.123,7.491,9.45,8.294,7.771,6.674                     C6.763,5.701,7.326,3.936,9.533,4.008c2.987,0.097,5.613,2.675,5.613,2.675V3.95c-4.098-2.724-7.498-2.098-9.215-0.836                     C3.257,5.079,2.62,9.459,6.822,11.227c2.035,0.856,3.739,0.961,4.71,1.38c1.124,0.487,1.776,2.714-1.066,3.212                     c-2.229,0.388-4.593-0.935-6.474-3.251c0.021,0.039,0,3.154,0,3.154C7.132,18.347,12.617,19.437,15.484,15.117z"></path>
                <path style="fill:#fff;" d="M10.001,0c4.831,0,8.863,3.428,9.796,7.985C18.865,3.428,14.833,0,10,0C4.477,0,0,4.477,0,10                     c0,0.691,0.07,1.365,0.203,2.016C0.07,11.365,0,10.691,0,10.001C0,4.478,4.478,0,10.001,0z"></path>
                <path style="fill:#fff;" d="M0.45,12.974c-0.074-0.236-0.13-0.48-0.186-0.723C0.32,12.494,0.376,12.738,0.45,12.974z"></path>
                <path style="fill:#53b330;" d="M19.797,7.985C18.864,3.428,14.833,0,10.001,0C4.478,0,0,4.478,0,10.001c0,0.69,0.07,1.364,0.203,2.015                     c0.016,0.08,0.042,0.156,0.06,0.235c0.056,0.244,0.112,0.487,0.186,0.723c0.017,0.056,0.042,0.109,0.06,0.165                     c1.009,3.051,3.442,5.455,6.517,6.411C7.967,19.843,8.966,20,10.001,20C15.523,20,20,15.524,20,10.001                     C20,9.311,19.93,8.636,19.797,7.985z M3.992,12.568c1.881,2.316,4.245,3.639,6.474,3.251c2.842-0.498,2.19-2.725,1.066-3.212                     c-0.971-0.419-2.675-0.524-4.71-1.38C2.62,9.459,3.257,5.079,5.931,3.114c1.717-1.262,5.117-1.888,9.215,0.836v2.733                     c0,0-2.626-2.578-5.613-2.675c-2.207-0.072-2.77,1.693-1.762,2.666c1.679,1.62,3.352,0.817,6.414,2.529                     c1.74,0.973,2.665,3.859,1.299,5.914c-2.867,4.32-8.352,3.23-11.492,0.605C3.992,15.722,4.013,12.607,3.992,12.568z"></path>
            </g>
        </svg>